<?xml version="1.0" encoding="UTF-8"?>
<!--Generator: Apple Native CoreSVG 175.5-->
<!DOCTYPE svg
PUBLIC "-//W3C//DTD SVG 1.1//EN"
       "http://www.w3.org/Graphics/SVG/1.1/DTD/svg11.dtd">
<svg version="1.1" xmlns="http://www.w3.org/2000/svg" xmlns:xlink="http://www.w3.org/1999/xlink" width="92.6897" height="92.3916">
 <g>
  <rect height="92.3916" opacity="0" width="92.6897" x="0" y="0"/>
  <path d="M4.16701 37.3823C-2.57128 40.5073-0.715807 49.5405 6.70607 49.5894L42.3018 49.7359C42.8877 49.7359 43.0342 49.8823 43.0342 50.4683L43.1318 85.771C43.1807 93.4859 52.3604 94.853 55.6318 87.773L91.7158 10.1851C95.0361 2.95851 89.3721-2.16845 82.1943 1.2007ZM12.6631 41.9722C12.4678 41.9722 12.419 41.7769 12.6631 41.6792L82.8291 9.5503C83.1709 9.40382 83.3174 9.50148 83.1709 9.8921L50.8467 80.0093C50.7979 80.2046 50.6026 80.1558 50.6026 79.9605L50.8467 45.439C50.8467 43.2905 49.333 41.7769 47.1358 41.7769Z" fill="#000000"/>
 </g>
</svg>
