<?xml version="1.0" encoding="UTF-8"?>
<!--Generator: Apple Native CoreSVG 175.5-->
<!DOCTYPE svg
PUBLIC "-//W3C//DTD SVG 1.1//EN"
       "http://www.w3.org/Graphics/SVG/1.1/DTD/svg11.dtd">
<svg version="1.1" xmlns="http://www.w3.org/2000/svg" xmlns:xlink="http://www.w3.org/1999/xlink" width="99.6094" height="99.6582">
 <g>
  <rect height="99.6582" opacity="0" width="99.6094" x="0" y="0"/>
  <path d="M49.8047 99.6094C77.0508 99.6094 99.6094 77.002 99.6094 49.8047C99.6094 22.5586 77.002 0 49.7559 0C22.5586 0 0 22.5586 0 49.8047C0 77.002 22.6074 99.6094 49.8047 99.6094ZM49.8047 91.3086C26.7578 91.3086 8.34961 72.8516 8.34961 49.8047C8.34961 26.7578 26.709 8.30078 49.7559 8.30078C72.8027 8.30078 91.3086 26.7578 91.3086 49.8047C91.3086 72.8516 72.8516 91.3086 49.8047 91.3086ZM83.2031 81.9824L83.0566 81.4453C80.6641 74.2676 67.7734 66.4062 49.8047 66.4062C31.8848 66.4062 18.9941 74.2676 16.5527 81.3965L16.4062 81.9824C25.1953 90.6738 40.2832 95.752 49.8047 95.752C59.375 95.752 74.3164 90.7227 83.2031 81.9824ZM49.8047 58.1055C59.2285 58.2031 66.5527 50.1953 66.5527 39.6973C66.5527 29.834 59.1797 21.6797 49.8047 21.6797C40.4297 21.6797 33.0078 29.834 33.0566 39.6973C33.1055 50.1953 40.4297 58.0078 49.8047 58.1055Z" fill="#000000"/>
 </g>
</svg>
