<?xml version="1.0" encoding="UTF-8"?>
<!--Generator: Apple Native CoreSVG 175.5-->
<!DOCTYPE svg
PUBLIC "-//W3C//DTD SVG 1.1//EN"
       "http://www.w3.org/Graphics/SVG/1.1/DTD/svg11.dtd">
<svg version="1.1" xmlns="http://www.w3.org/2000/svg" xmlns:xlink="http://www.w3.org/1999/xlink" width="115.137" height="89.8926">
 <g>
  <rect height="89.8926" opacity="0" width="115.137" x="0" y="0"/>
  <path d="M3.90625 0C1.5625 0 0 1.5625 0 3.90625L0 86.0352C0 88.3789 1.5625 89.8926 3.90625 89.8926L111.279 89.8926C113.623 89.8926 115.137 88.3789 115.137 86.0352L115.137 3.90625C115.137 1.5625 113.623 0 111.279 0ZM9.27734 7.86133L105.859 7.86133C106.934 7.86133 107.275 8.25195 107.275 9.27734L107.275 80.6152C107.275 81.6895 106.934 82.0312 105.859 82.0312L9.27734 82.0312C8.25195 82.0312 7.86133 81.6895 7.86133 80.6152L7.86133 9.27734C7.86133 8.25195 8.25195 7.86133 9.27734 7.86133ZM16.0156 13.1348C14.1602 13.1348 13.1348 14.1602 13.1348 15.9668L13.1348 73.9746C13.1348 75.7324 14.1602 76.8066 16.0156 76.8066L99.1699 76.8066C100.977 76.8066 102.051 75.7324 102.051 73.9746L102.051 15.9668C102.051 14.1602 100.977 13.1348 99.1699 13.1348ZM19.1406 18.0664L95.9961 18.0664C96.7285 18.0664 97.1191 18.457 97.1191 19.1895L97.1191 70.752C97.1191 71.4844 96.7285 71.875 95.9961 71.875L19.1406 71.875C18.4082 71.875 18.0664 71.4844 18.0664 70.752L18.0664 19.1895C18.0664 18.457 18.4082 18.0664 19.1406 18.0664ZM98.3398 65.332L75.7812 44.2383C74.0723 42.627 72.1191 41.8945 70.0684 41.8945C67.9199 41.8945 66.0156 42.5293 64.3066 44.1406L47.0703 59.5703L40.0391 53.1738C38.4766 51.709 36.6699 51.0254 34.8633 51.0254C33.2031 51.0254 31.5918 51.709 29.9805 53.125L15.4785 66.2598L15.4785 70.166C15.4785 73.291 17.2363 74.6094 19.8242 74.6094L93.9453 74.6094C96.582 74.6094 98.3398 73.291 98.3398 70.166ZM40.8691 44.5801C45.8008 44.5801 49.8535 40.5273 49.8535 35.5957C49.8535 30.6641 45.8008 26.6113 40.8691 26.6113C35.9375 26.6113 31.8848 30.6641 31.8848 35.5957C31.8848 40.5273 35.9375 44.5801 40.8691 44.5801Z" fill="#000000"/>
 </g>
</svg>
