<?xml version="1.0" encoding="UTF-8"?>
<!--Generator: Apple Native CoreSVG 175.5-->
<!DOCTYPE svg
PUBLIC "-//W3C//DTD SVG 1.1//EN"
       "http://www.w3.org/Graphics/SVG/1.1/DTD/svg11.dtd">
<svg version="1.1" xmlns="http://www.w3.org/2000/svg" xmlns:xlink="http://www.w3.org/1999/xlink" width="120.752" height="84.6191">
 <g>
  <rect height="84.6191" opacity="0" width="120.752" x="0" y="0"/>
  <path d="M0 64.7949C0 67.041 0.878906 68.457 2.83203 69.3848C8.25195 72.0703 11.2793 75.1465 14.6484 81.7871C15.6738 83.5938 17.1875 84.5215 19.1895 84.5215L101.562 84.5215C103.516 84.5215 105.029 83.5938 106.055 81.7871C109.424 75.1465 112.451 72.0703 117.92 69.3848C119.873 68.457 120.752 67.041 120.752 64.7949L120.752 19.7754C120.752 17.4805 119.873 16.0645 117.92 15.1855C112.451 12.5 109.424 9.375 106.055 2.7832C105.029 0.927734 103.516 0 101.562 0L19.1895 0C17.1875 0 15.6738 0.927734 14.6484 2.7832C11.2793 9.375 8.25195 12.5 2.83203 15.1855C0.878906 16.0645 0 17.4805 0 19.7754ZM7.86133 63.6719L7.86133 20.8984C13.7695 18.457 17.5781 14.502 20.6543 7.86133L100.098 7.86133C103.125 14.502 106.982 18.457 112.891 20.8984L112.891 63.6719C106.982 66.1133 103.125 70.0684 100.098 76.6602L20.6543 76.6602C17.5781 70.0684 13.7695 66.1133 7.86133 63.6719ZM21.2891 63.8672C21.2891 66.4551 23.0469 68.1641 25.5859 68.1641L95.1172 68.1641C97.7051 68.1641 99.4141 66.4551 99.4141 63.8672L99.4141 20.7031C99.4141 18.1641 97.7051 16.4062 95.1172 16.4062L25.5859 16.4062C23.0469 16.4062 21.2891 18.1641 21.2891 20.7031ZM27.1973 61.1816L27.1973 52.8809L33.6426 52.8809L33.6426 62.2559L28.3203 62.2559C27.5879 62.2559 27.1973 61.9141 27.1973 61.1816ZM27.1973 46.9727L27.1973 37.6465L33.6426 37.6465L33.6426 46.9727ZM27.1973 31.7383L27.1973 23.3887C27.1973 22.7051 27.5879 22.3145 28.3203 22.3145L33.6426 22.3145L33.6426 31.7383ZM87.1094 31.7383L87.1094 22.3145L92.4316 22.3145C93.1641 22.3145 93.5059 22.7051 93.5059 23.3887L93.5059 31.7383ZM87.1094 46.9727L87.1094 37.6465L93.5059 37.6465L93.5059 46.9727ZM87.1094 62.2559L87.1094 52.8809L93.5059 52.8809L93.5059 61.1816C93.5059 61.9141 93.1641 62.2559 92.4316 62.2559ZM39.5508 62.2559L39.5508 22.3145L81.2012 22.3145L81.2012 62.2559Z" fill="#000000"/>
 </g>
</svg>
